<?xml version="1.0" standalone="no"?>
<!DOCTYPE svg PUBLIC "-//W3C//DTD SVG 20010904//EN"
 "http://www.w3.org/TR/2001/REC-SVG-20010904/DTD/svg10.dtd">
<svg version="1.0" xmlns="http://www.w3.org/2000/svg"
 width="600.000000pt" height="339.000000pt" viewBox="0 0 600.000000 339.000000"
 preserveAspectRatio="xMidYMid meet">
<g transform="translate(0.000000,339.000000) scale(0.100000,-0.100000)"
fill="#000000" stroke="none">
<path d="M2880 2449 c-76 -12 -223 -66 -251 -92 -13 -12 -26 -21 -29 -21 -13
3 -37 -11 -57 -34 -13 -14 -23 -22 -23 -19 0 3 -12 -6 -27 -20 -16 -14 -27
-29 -25 -34 1 -5 -4 -8 -10 -7 -7 2 -12 -3 -10 -10 1 -6 -3 -11 -9 -10 -6 2
-16 -6 -22 -17 -7 -10 -18 -25 -25 -33 -7 -8 -19 -27 -27 -43 -9 -16 -20 -29
-26 -29 -6 0 -9 -7 -5 -15 3 -8 2 -15 -3 -15 -9 0 -36 -57 -30 -62 2 -2 -4
-14 -14 -28 -9 -13 -17 -33 -17 -43 0 -11 -4 -15 -12 -11 -7 4 -8 3 -4 -5 4
-6 2 -19 -6 -28 -11 -14 -11 -16 2 -8 12 7 13 6 3 -7 -17 -20 3 -82 23 -74 8
3 14 3 14 0 0 -2 -10 -8 -22 -13 -16 -6 -21 -17 -23 -43 -1 -24 3 -34 11 -31
20 8 22 -10 4 -50 -15 -33 -19 -36 -26 -20 -4 10 -9 23 -9 28 -1 6 -5 18 -9
27 -4 9 -8 23 -10 30 -1 8 -12 27 -25 44 -12 16 -20 23 -16 17 4 -9 1 -11 -9
-7 -9 3 -14 10 -11 14 3 5 -5 6 -17 2 -24 -6 -52 -31 -61 -55 -3 -9 -11 -17
-17 -17 -6 0 -8 5 -5 10 7 12 -28 51 -62 69 -30 15 -134 14 -155 -3 -45 -33
-3 -84 65 -81 25 1 44 -1 42 -5 -2 -4 -20 -6 -40 -5 -46 2 -71 -25 -80 -88 -5
-39 -3 -53 11 -68 33 -37 88 -11 82 40 -3 24 0 26 37 29 23 2 49 12 63 24 12
12 22 16 22 10 0 -6 -5 -14 -10 -17 -6 -4 -8 -11 -5 -16 4 -5 3 -9 -2 -9 -12
0 -13 -53 -1 -67 6 -7 19 -13 29 -13 23 0 70 46 63 63 -2 7 4 22 15 34 11 11
18 24 15 27 -2 3 -1 3 4 0 4 -3 7 -9 8 -12 0 -4 6 -27 14 -51 17 -52 50 -73
77 -49 15 14 20 14 31 2 14 -15 16 -34 4 -34 -5 0 -9 -6 -9 -12 0 -7 -4 -22
-8 -33 -5 -16 -5 -17 4 -5 9 13 11 12 11 -5 0 -11 7 -30 15 -42 11 -16 12 -24
4 -29 -8 -5 -9 -3 -4 7 5 8 4 11 -1 6 -5 -5 -9 -12 -9 -16 0 -4 -10 -20 -23
-36 -31 -41 -59 -74 -48 -58 5 8 4 13 -2 13 -6 0 -14 -9 -17 -20 -4 -12 -11
-17 -18 -13 -8 4 -7 1 1 -9 8 -10 9 -19 4 -22 -13 -8 -52 -83 -46 -88 2 -3 -5
-13 -16 -23 -21 -19 -28 -41 -9 -29 8 4 8 1 1 -12 -17 -34 -7 -63 34 -93 31
-22 47 -27 79 -24 22 2 50 5 63 6 12 1 22 5 22 8 0 7 78 23 93 20 5 -1 5 4 1
10 -4 8 0 9 16 4 15 -5 20 -4 16 4 -4 6 -1 11 7 11 9 0 46 14 84 32 79 37 95
44 70 28 -15 -10 -16 -14 -5 -28 11 -15 11 -16 -2 -7 -9 6 -5 0 9 -12 14 -13
51 -33 81 -45 30 -12 58 -26 61 -31 4 -5 12 -6 19 -2 7 4 15 2 19 -4 4 -6 22
-13 39 -15 17 -3 37 -8 44 -13 17 -10 268 -12 262 -1 -3 4 2 5 11 2 8 -4 28
-2 43 4 15 6 44 13 65 17 21 3 35 9 33 14 -5 7 83 37 97 33 5 -1 6 2 2 8 -6
10 51 37 68 32 5 -1 6 2 2 7 -7 12 37 43 55 39 7 -2 14 4 15 12 4 25 73 91 79
77 3 -7 5 -3 3 8 -1 11 5 27 13 35 8 9 26 31 39 48 18 24 27 29 33 20 6 -9 7
-6 3 9 -4 13 5 45 25 86 16 35 30 70 30 78 0 8 6 21 13 28 6 8 8 12 2 9 -5 -3
-17 3 -27 13 -15 16 -15 17 3 22 11 3 23 -2 30 -11 9 -15 10 -15 5 2 -4 10 1
30 10 44 9 13 11 22 6 18 -7 -4 -10 3 -8 19 3 32 16 45 16 17 0 -30 62 -92 92
-92 33 0 81 41 73 62 -4 9 -1 19 6 24 7 4 10 3 5 -4 -8 -14 21 -49 56 -68 56
-29 134 -8 157 43 6 13 11 57 11 98 0 63 -3 78 -21 96 -15 15 -23 18 -29 9 -4
-6 -10 -11 -14 -11 -3 1 -10 1 -14 1 -5 0 -9 -35 -9 -77 -1 -43 -5 -78 -9 -78
-5 0 -15 -4 -23 -9 -10 -6 -12 -5 -7 2 4 7 3 12 -2 12 -4 0 -6 22 -2 49 4 31
3 48 -3 44 -5 -3 -7 0 -5 8 3 8 -3 26 -13 41 -17 23 -22 25 -43 15 -13 -7 -22
-15 -20 -18 2 -4 -2 -9 -9 -12 -8 -3 -14 3 -14 16 -3 35 -58 53 -69 22 -4 -8
-10 -12 -15 -9 -5 3 -9 0 -9 -7 0 -10 -3 -10 -12 -1 -7 7 -17 12 -23 12 -5 0
-3 -5 5 -10 8 -5 10 -10 4 -10 -6 0 -19 9 -29 20 -10 11 -27 20 -38 20 -14 0
-17 3 -9 13 5 6 8 26 5 42 -2 17 -4 37 -5 45 -1 24 -18 39 -38 35 -11 -2 -23
1 -26 7 -4 6 -3 8 3 5 6 -4 14 5 17 19 4 15 10 24 13 21 6 -6 53 58 53 72 0
14 37 51 44 44 3 -3 6 3 6 15 0 12 5 22 11 22 6 0 9 6 6 14 -3 8 3 22 15 32
11 11 25 28 31 39 9 18 9 19 -8 5 -17 -14 -18 -14 -5 9 7 14 14 42 15 63 2 32
-3 43 -31 68 -29 25 -40 29 -78 25 -62 -6 -134 -23 -160 -37 -23 -13 -28 -15
-52 -17 -8 0 -13 -5 -10 -10 9 -14 -20 -21 -33 -8 -8 8 -11 7 -11 -5 0 -9 -5
-20 -12 -24 -7 -5 -8 -3 -3 7 7 11 5 11 -10 -1 -14 -11 -19 -12 -22 -2 -3 6
-11 12 -18 12 -8 0 -18 6 -22 13 -9 13 -143 82 -155 79 -5 -1 -8 2 -8 6 0 5
-6 9 -12 9 -7 1 -56 10 -108 22 -100 22 -169 24 -260 10z m306 -49 c84 -22
182 -69 239 -115 l41 -33 89 44 c199 98 317 94 301 -8 -14 -87 -131 -264 -266
-403 l-72 -75 -55 0 -55 0 81 83 c146 149 234 290 215 346 -8 22 -16 26 -54
29 -25 2 -71 -4 -102 -14 l-57 -17 54 -60 54 -60 -20 -29 -21 -29 -31 47 c-65
98 -227 205 -367 240 -86 23 -236 23 -320 1 -195 -51 -359 -183 -444 -358 -25
-52 -48 -113 -52 -136 -6 -41 -8 -43 -40 -43 -19 0 -34 2 -34 4 0 2 9 35 21
72 47 152 131 281 244 373 188 152 415 201 651 141z m-34 -106 c32 -8 65 -17
74 -21 13 -5 15 -3 9 8 -5 8 -5 11 1 6 5 -5 8 -11 6 -15 -5 -8 69 -42 79 -36
5 3 6 11 2 17 -4 7 0 6 10 -2 18 -14 23 -26 8 -16 -5 3 -12 1 -15 -4 -3 -5 12
-21 34 -36 41 -28 123 -112 152 -155 16 -24 17 -24 17 -3 1 12 -5 24 -11 26
-10 4 -10 6 0 6 18 1 26 -26 15 -51 -8 -19 -11 -18 -36 18 -14 22 -51 63 -81
93 -50 49 -57 53 -73 40 -16 -13 -17 -12 -5 3 14 17 1 34 -18 23 -6 -4 -9 -1
-8 6 4 17 -96 65 -174 83 -199 47 -408 -11 -561 -154 -73 -68 -120 -142 -158
-248 -15 -43 -28 -70 -28 -61 -1 9 8 42 19 74 24 71 24 71 3 54 -16 -13 -17
-12 -4 4 8 9 16 15 19 12 3 -3 17 14 30 37 141 240 423 359 694 292z m-402 -8
c0 -2 -7 -7 -16 -10 -8 -3 -12 -2 -9 4 6 10 25 14 25 6z m314 -8 c-5 -8 -2 -9
10 -5 10 4 23 4 29 0 12 -8 18 -9 38 -12 5 0 7 -6 4 -11 -4 -6 -11 -7 -17 -4
-7 4 -8 2 -4 -4 5 -8 2 -10 -8 -6 -9 3 -16 11 -16 18 0 8 -2 8 -8 -1 -7 -11
-93 -13 -86 -2 2 4 -3 10 -12 13 -8 3 -12 2 -9 -4 3 -6 -3 -10 -15 -10 -12 0
-30 -5 -41 -10 -14 -8 -19 -7 -19 1 0 7 -9 4 -22 -7 -12 -10 -18 -13 -14 -6 4
6 2 12 -3 12 -6 0 -11 -5 -11 -11 0 -5 -8 -9 -17 -8 -32 3 -44 -1 -38 -12 4
-6 1 -9 -6 -8 -8 1 -27 -4 -44 -11 -16 -7 -34 -12 -38 -11 -5 1 -6 -3 -2 -9 9
-14 -8 -13 -24 3 -11 9 -13 9 -7 0 4 -7 0 -23 -8 -35 -9 -12 -16 -19 -16 -14
0 5 -8 -1 -19 -12 -10 -12 -23 -22 -29 -22 -6 0 -14 -9 -17 -20 -3 -11 -11
-20 -16 -20 -6 0 -7 4 -4 10 3 6 -1 7 -10 4 -14 -6 -14 -8 2 -20 14 -11 14
-14 3 -12 -8 2 -14 -3 -12 -9 1 -7 -3 -13 -9 -13 -5 0 -7 -4 -4 -10 3 -5 0 -7
-8 -4 -8 3 -18 0 -23 -7 -5 -8 -3 -10 5 -4 10 6 10 2 0 -16 -7 -13 -14 -26
-14 -29 0 -3 -6 -15 -13 -27 -7 -13 -10 -23 -8 -23 3 0 -3 -16 -14 -35 -17
-31 -18 -36 -4 -50 21 -21 59 -41 50 -26 -9 14 7 14 21 0 7 -7 9 0 6 26 -2 22
0 34 6 31 6 -4 8 3 6 15 -3 13 4 28 18 40 13 11 17 18 9 19 -7 0 0 14 18 33
17 18 28 38 24 47 -3 8 -2 11 2 8 7 -8 22 6 47 45 10 15 22 27 28 27 6 0 7 -5
3 -12 -4 -7 -3 -8 5 -4 9 6 9 12 -1 24 -7 10 -9 14 -4 10 5 -4 23 3 40 16 17
13 36 22 43 19 6 -2 14 1 18 6 4 8 13 7 28 -1 19 -10 21 -9 9 4 -8 10 -9 19
-3 22 5 4 13 1 16 -4 5 -8 13 -6 25 5 21 19 186 28 195 11 3 -7 7 -6 11 3 5
10 8 11 14 1 4 -7 18 -14 31 -15 39 -4 40 -5 35 -13 -3 -5 1 -9 9 -9 26 0 127
-56 115 -63 -11 -7 9 -21 32 -24 4 -1 14 -10 22 -22 13 -18 13 -21 -2 -21 -9
0 -25 11 -35 24 -10 13 -24 23 -30 22 -20 -4 -67 20 -74 36 -3 9 -12 14 -19
11 -7 -3 -20 1 -28 9 -7 8 -16 11 -20 8 -3 -3 -12 -1 -19 6 -8 6 -23 8 -32 4
-11 -4 -16 -2 -12 3 4 6 -27 9 -81 7 -113 -3 -125 -5 -138 -22 -9 -11 -13 -10
-27 4 -14 14 -17 14 -17 2 0 -9 6 -18 13 -21 6 -3 -1 -4 -18 -1 -22 4 -26 3
-15 -5 13 -8 12 -10 -5 -11 -11 -1 -26 -2 -32 -2 -7 1 -11 -3 -8 -7 3 -5 1
-11 -5 -15 -14 -9 -12 -28 3 -22 6 2 11 9 10 15 -1 5 3 9 10 9 7 -1 34 9 61
22 83 39 164 48 254 28 42 -10 85 -19 94 -20 9 -1 15 -4 12 -8 -2 -4 4 -10 15
-14 11 -3 36 -19 57 -36 28 -22 39 -26 46 -17 4 7 8 9 8 3 0 -29 -17 -35 -43
-15 -15 12 -28 16 -32 10 -3 -5 -1 -10 6 -10 7 0 10 -3 6 -6 -3 -3 -16 1 -28
10 -15 10 -28 12 -39 6 -13 -7 -19 -2 -27 21 -9 23 -9 29 3 29 8 0 14 -5 14
-12 0 -6 3 -8 7 -5 3 4 17 -2 29 -14 12 -11 25 -16 28 -11 9 15 -103 69 -169
81 -32 6 -75 9 -95 5 -80 -12 -130 -27 -124 -35 3 -5 16 -6 30 -3 20 5 23 3
18 -12 -3 -11 2 -7 10 7 14 24 20 26 74 24 33 -1 65 -5 71 -9 6 -4 11 -2 11 5
0 8 3 9 13 0 8 -6 17 -8 20 -4 4 3 7 1 7 -6 0 -8 -7 -10 -19 -6 -13 4 -24 0
-31 -12 -11 -16 -11 -17 -6 0 3 10 0 17 -8 17 -9 0 -12 -7 -9 -20 3 -11 14
-20 25 -20 10 0 16 5 13 10 -3 6 -2 10 2 10 5 0 13 -10 18 -22 6 -13 17 -24
25 -24 8 -1 20 -3 25 -4 6 -1 13 -2 18 -1 13 2 8 -11 -10 -24 -13 -9 -13 -14
-3 -20 8 -5 11 -4 7 2 -15 24 27 23 52 0 14 -14 36 -33 48 -42 12 -10 20 -23
17 -29 -3 -6 2 -2 10 8 17 21 35 15 19 -6 -6 -8 -6 -23 -2 -38 8 -25 9 -24 5
3 -2 15 1 30 5 33 5 3 9 2 9 -3 1 -13 40 -59 40 -46 0 6 -7 18 -15 26 -8 8
-11 17 -8 21 4 3 1 6 -5 6 -7 0 -12 5 -12 11 0 5 4 8 9 4 20 -12 21 17 1 42
-18 24 -19 28 -5 35 33 19 55 17 71 -7 9 -13 13 -28 10 -34 -4 -5 3 -12 14
-16 11 -4 18 -11 14 -16 -3 -5 -2 -9 3 -8 28 5 31 -3 11 -26 l-21 -24 -19 21
c-10 12 -17 27 -14 33 2 7 -4 18 -15 26 -10 7 -19 19 -19 25 0 7 -7 14 -15 18
-21 8 -20 5 20 -54 19 -29 36 -58 36 -66 1 -8 3 -18 4 -24 1 -5 3 -16 4 -23 0
-8 7 -14 14 -15 44 -6 57 -9 64 -17 5 -4 3 -5 -3 -2 -7 4 -15 0 -18 -9 -3 -9
-13 -14 -21 -10 -8 3 -17 0 -21 -6 -4 -7 -3 -8 4 -4 7 4 12 1 12 -8 0 -21 -30
-9 -31 13 -1 9 -1 20 0 24 1 5 -3 6 -9 2 -6 -3 -8 -12 -4 -18 3 -7 -6 2 -20
18 -17 20 -24 23 -19 11 4 -13 3 -17 -5 -12 -6 3 -13 2 -17 -3 -3 -6 -12 -8
-19 -5 -8 3 -17 1 -20 -4 -8 -13 -57 -2 -63 15 -4 11 -8 11 -21 1 -13 -11 -14
-11 -8 0 6 10 0 10 -22 -2 -39 -20 -53 -20 -28 -1 11 8 15 15 9 15 -13 0 -26
-18 -29 -38 -1 -6 2 -9 8 -6 5 3 -2 -12 -17 -35 -14 -23 -24 -45 -22 -49 3 -4
0 -16 -4 -27 -8 -18 -9 -17 -5 4 3 16 2 21 -5 14 -6 -6 -11 -20 -12 -32 -1
-22 -16 -30 -18 -8 0 8 -2 8 -5 1 -4 -9 -14 -9 -39 -1 l-35 10 0 63 c0 58 -2
64 -29 84 -21 14 -32 17 -37 9 -5 -8 -2 -10 7 -5 8 4 4 -1 -7 -11 -19 -16 -21
-28 -20 -95 1 -68 -1 -75 -16 -67 -9 5 -32 9 -52 9 l-35 0 5 56 c2 31 7 61 11
67 3 6 1 7 -5 3 -17 -10 -20 18 -3 32 13 11 12 11 -8 1 -20 -9 -23 -9 -19 3
10 24 -28 19 -52 -7 -17 -18 -21 -31 -17 -53 4 -19 1 -37 -9 -48 -10 -14 -12
-14 -9 -3 3 9 -1 22 -10 29 -8 7 -15 19 -15 28 0 8 -10 23 -22 34 -13 11 -23
23 -23 26 -1 12 -24 47 -25 37 0 -6 6 -17 13 -24 10 -11 9 -13 -3 -9 -20 7
-82 -43 -86 -68 -4 -35 -16 -64 -26 -64 -5 0 -7 -4 -3 -9 3 -5 1 -12 -4 -16
-6 -3 -9 -11 -7 -18 1 -7 1 -9 -1 -4 -3 4 -9 5 -14 1 -14 -8 -10 22 4 35 11 9
16 78 7 89 -1 1 -3 6 -4 11 0 5 -4 13 -8 17 -17 17 -7 26 11 10 19 -17 19 -17
17 0 -3 19 -32 28 -42 13 -3 -6 0 -18 7 -27 8 -9 2 -7 -11 5 -18 16 -36 21
-66 19 -31 -1 -41 1 -37 11 3 7 9 11 13 8 5 -3 13 2 19 12 9 17 11 16 31 -2
12 -11 21 -15 20 -10 -3 17 12 55 20 50 4 -3 8 6 8 20 0 27 20 83 37 102 29
35 33 41 29 46 -3 2 10 21 29 41 19 19 32 38 29 41 -3 3 -1 5 4 5 5 0 20 10
34 21 14 11 18 17 10 13 -28 -14 -2 8 51 42 29 18 55 31 59 29 3 -2 12 4 19
14 9 12 21 16 39 13 16 -3 23 -1 18 6 -4 7 4 9 24 7 18 -3 28 0 25 5 -6 9 11
14 43 13 6 -1 12 3 12 8 0 5 5 9 11 9 5 0 7 -5 3 -12 -5 -8 -3 -8 7 -2 8 5 43
12 79 15 36 3 66 7 68 7 2 1 0 -3 -4 -10z m-363 -21 c-10 -9 -11 -8 -5 6 3 10
9 15 12 12 3 -3 0 -11 -7 -18z m489 -8 c0 -5 16 -11 35 -15 19 -3 35 -10 35
-16 0 -5 5 -6 12 -2 7 5 8 3 3 -6 -6 -10 -4 -12 8 -7 9 3 18 0 21 -9 3 -9 11
-12 17 -8 8 4 9 -1 4 -16 -6 -19 -4 -21 14 -15 27 8 49 -4 30 -17 -11 -7 -9
-8 6 -6 22 4 81 -55 71 -71 -3 -5 2 -15 12 -22 16 -13 16 -12 3 6 -9 13 -5 11
11 -5 14 -14 23 -29 20 -34 -2 -4 -9 -2 -14 5 -8 11 -9 11 -5 -1 2 -8 10 -15
18 -16 8 0 22 -4 32 -9 16 -7 16 -8 -3 -25 -11 -9 -17 -20 -13 -24 3 -3 3 -6
0 -6 -4 0 -15 17 -26 38 -11 21 -33 52 -49 70 -22 23 -26 34 -18 43 8 9 8 10
-1 5 -7 -4 -23 0 -35 8 -12 9 -18 16 -13 17 6 0 -1 5 -15 11 -14 6 -28 11 -32
10 -9 -2 -68 66 -68 78 0 6 -5 10 -12 10 -9 0 -9 -3 0 -12 20 -20 13 -32 -7
-14 -11 10 -25 15 -30 11 -6 -3 -11 2 -12 12 0 11 -3 13 -6 5 -4 -10 -8 -10
-21 0 -13 11 -15 11 -7 -2 6 -12 5 -13 -5 -3 -10 9 -10 16 -2 26 13 15 42 19
42 6z m475 -8 c17 -1 20 -36 4 -46 -6 -4 -8 -13 -5 -20 2 -7 -6 -27 -19 -44
-23 -32 -23 -32 -29 -8 -3 13 -14 34 -26 46 -11 13 -17 28 -13 34 4 6 0 8 -9
5 -8 -4 -15 0 -15 8 0 7 7 16 14 18 9 4 11 1 7 -5 -4 -7 -1 -10 7 -7 8 3 13 9
12 14 -1 8 21 9 72 5z m-655 -26 c0 -8 -4 -15 -10 -15 -5 0 -10 7 -10 15 0 8
5 15 10 15 6 0 10 -7 10 -15z m-90 -10 c0 -8 -4 -15 -10 -15 -5 0 -10 7 -10
15 0 8 5 15 10 15 6 0 10 -7 10 -15z m48 4 c-2 -6 -8 -10 -13 -10 -5 0 -11 4
-13 10 -2 6 4 11 13 11 9 0 15 -5 13 -11z m82 -4 c0 -8 -4 -15 -10 -15 -5 0
-10 7 -10 15 0 8 5 15 10 15 6 0 10 -7 10 -15z m48 3 c-6 -18 -28 -21 -28 -4
0 9 7 16 16 16 9 0 14 -5 12 -12z m-218 -13 c0 -8 -4 -15 -10 -15 -5 0 -10 7
-10 15 0 8 5 15 10 15 6 0 10 -7 10 -15z m260 0 c0 -8 -7 -15 -15 -15 -16 0
-20 12 -8 23 11 12 23 8 23 -8z m-300 -9 c0 -8 -4 -17 -9 -20 -10 -7 -23 19
-14 28 11 11 23 6 23 -8z m340 -1 c0 -8 -7 -15 -15 -15 -9 0 -12 6 -9 15 4 8
10 15 15 15 5 0 9 -7 9 -15z m-382 -24 c3 -8 -1 -12 -9 -9 -7 2 -15 10 -17 17
-3 8 1 12 9 9 7 -2 15 -10 17 -17z m422 11 c0 -13 -12 -22 -22 -16 -10 6 -1
24 13 24 5 0 9 -4 9 -8z m-463 -38 c-9 -9 -28 6 -21 18 4 6 10 6 17 -1 6 -6 8
-13 4 -17z m503 17 c0 -12 -20 -25 -27 -18 -7 7 6 27 18 27 5 0 9 -4 9 -9z
m-710 -5 c0 -2 -7 -9 -15 -16 -13 -11 -14 -10 -9 4 5 14 24 23 24 12z m170
-17 c0 -5 0 -11 0 -14 0 -14 -15 -4 -21 14 -6 15 -4 19 7 14 7 -3 14 -9 14
-14z m571 -12 c-13 -13 -26 -3 -16 12 3 6 11 8 17 5 6 -4 6 -10 -1 -17z m-601
-23 c0 -9 -5 -14 -12 -12 -18 6 -21 28 -4 28 9 0 16 -7 16 -16z m640 8 c0 -13
-12 -22 -22 -16 -10 6 -1 24 13 24 5 0 9 -4 9 -8z m-677 -45 c-3 -5 -10 -4
-15 1 -6 6 -7 16 -3 22 6 9 9 9 16 -1 4 -7 5 -17 2 -22z m706 7 c-6 -7 -15
-11 -21 -8 -5 3 -4 12 3 20 6 7 15 11 21 8 5 -3 4 -12 -3 -20z m-230 -36 c-8
-15 -13 -17 -25 -7 -8 6 -14 17 -14 23 0 8 3 7 8 -1 5 -8 13 -9 22 -3 8 6 10
10 4 10 -6 0 -11 7 -11 16 0 15 2 15 13 -1 10 -13 10 -23 3 -37z m491 47 c0
-2 -10 -9 -22 -15 -22 -11 -22 -10 -4 4 21 17 26 19 26 11z m-992 -44 c3 -8
-1 -12 -9 -9 -7 2 -15 10 -17 17 -3 8 1 12 9 9 7 -2 15 -10 17 -17z m805 -35
c23 -35 33 -57 26 -61 -13 -8 -9 -12 -53 51 -31 46 -36 64 -17 64 3 0 23 -25
44 -54z m140 40 c4 -10 1 -13 -8 -9 -8 3 -12 9 -9 14 7 12 11 11 17 -5z m-279
-4 c3 -5 -1 -9 -9 -9 -8 0 -15 4 -15 9 0 4 4 8 9 8 6 0 12 -4 15 -8z m-147
-24 c-3 -8 -6 -5 -6 6 -1 11 2 17 5 13 3 -3 4 -12 1 -19z m-545 -10 c-12 -12
-35 -1 -27 12 3 5 13 6 21 3 10 -4 12 -9 6 -15z m668 -20 c0 -4 4 -7 9 -5 5 1
10 -2 12 -8 2 -5 12 -18 23 -28 12 -10 15 -16 9 -12 -7 3 -13 1 -13 -5 0 -6
-5 -8 -11 -4 -8 4 -7 9 2 15 10 6 7 9 -10 9 -21 0 -22 2 -10 18 13 15 12 16
-3 3 -17 -12 -22 -9 -19 12 1 4 -8 3 -19 -3 -11 -6 -20 -13 -20 -16 0 -3 5 -2
11 1 5 4 19 -1 30 -11 21 -19 25 -34 8 -34 -5 0 -7 5 -4 10 3 6 -1 10 -9 10
-16 0 -69 44 -62 51 8 8 76 5 76 -3z m-690 -8 c0 -5 -7 -10 -15 -10 -8 0 -15
5 -15 10 0 6 7 10 15 10 8 0 15 -4 15 -10z m-22 -39 c3 -8 -1 -12 -9 -9 -7 2
-15 10 -17 17 -3 8 1 12 9 9 7 -2 15 -10 17 -17z m1182 -22 c0 -6 -4 -7 -10
-4 -5 3 -10 11 -10 16 0 6 5 7 10 4 6 -3 10 -11 10 -16z m-27 -21 c4 -18 9
-43 13 -55 6 -20 3 -23 -24 -23 -24 0 -32 6 -40 28 -7 22 -5 32 12 54 27 35
32 34 39 -4z m-1175 3 c3 -8 -1 -12 -9 -9 -7 2 -15 10 -17 17 -3 8 1 12 9 9 7
-2 15 -10 17 -17z m1093 -24 c-6 -15 -5 -29 5 -41 7 -11 11 -24 7 -29 -4 -6 0
-8 10 -4 9 3 19 2 22 -4 4 -5 11 -6 17 -3 5 4 3 -4 -5 -17 -8 -13 -17 -36 -21
-51 -6 -28 -29 -37 -41 -18 -3 6 -12 10 -18 10 -7 0 -6 -4 3 -10 13 -8 12 -10
-2 -10 -10 0 -18 6 -18 13 0 8 -4 7 -10 -3 -8 -12 -10 -12 -10 -1 0 9 -6 7
-19 -7 -10 -12 -21 -18 -25 -14 -5 4 -2 -9 6 -28 13 -31 19 -35 58 -38 23 -2
48 2 53 7 21 21 29 10 26 -33 -2 -24 0 -44 5 -43 6 1 12 -6 14 -16 3 -14 -1
-18 -15 -15 -10 2 -27 -4 -37 -14 -24 -22 -37 -23 -30 -3 4 8 4 15 1 15 -11 0
-26 -74 -18 -84 6 -7 3 -17 -6 -25 -13 -12 -14 -11 -9 10 4 13 -5 2 -19 -25
-20 -40 -22 -52 -12 -65 9 -12 9 -13 0 -7 -8 4 -13 2 -13 -6 0 -10 -2 -10 -9
1 -7 11 -11 10 -19 -6 -7 -13 -8 -23 -1 -30 6 -6 3 -16 -10 -27 -20 -18 -24
-7 -7 24 4 8 -2 4 -13 -9 -42 -47 -32 -12 11 41 40 49 87 140 103 198 4 15 -4
8 -21 -20 -15 -25 -27 -53 -26 -63 0 -9 -3 -15 -8 -12 -6 3 -7 0 -5 -8 7 -15
-29 -60 -39 -50 -4 4 -4 0 -1 -8 7 -18 -19 -44 -34 -34 -7 4 -8 -1 -4 -11 5
-13 3 -15 -7 -9 -8 5 -11 4 -7 -3 11 -16 -3 -41 -19 -35 -9 3 -14 0 -12 -8 2
-8 -3 -13 -10 -11 -8 1 -11 -2 -6 -9 5 -9 2 -10 -10 -6 -9 4 -15 3 -12 -2 6
-9 -47 -51 -64 -51 -5 0 -10 -4 -10 -9 0 -16 -55 -30 -75 -19 -12 7 -16 7 -11
0 18 -30 -134 -68 -209 -52 -5 1 -12 1 -15 0 -19 -7 -46 -8 -55 -1 -5 5 -24 9
-42 9 -17 0 -42 6 -54 13 -13 6 -32 13 -44 14 -38 4 -40 5 -26 14 10 7 7 9
-12 8 -15 -1 -27 -3 -27 -4 0 -8 62 -33 70 -28 6 3 10 2 10 -3 0 -11 87 -35
100 -27 5 3 11 1 15 -5 10 -17 147 -11 227 9 91 23 152 53 236 115 59 44 86
55 40 15 -13 -10 -17 -18 -10 -19 16 0 27 4 25 10 0 3 5 11 13 18 19 17 18 2
-2 -26 -8 -12 -20 -20 -25 -16 -6 3 -17 -2 -25 -12 -14 -18 -14 -18 -7 0 6 19
6 19 -23 -1 -80 -57 -230 -113 -300 -113 -21 0 -25 -3 -17 -11 8 -8 25 -8 62
1 28 6 56 10 63 8 7 -3 -16 -10 -51 -17 -55 -11 -65 -10 -80 3 -10 9 -26 16
-36 16 -18 0 -18 -1 1 -16 18 -14 14 -15 -50 -9 -38 3 -77 10 -85 15 -20 12
-7 12 43 0 22 -5 46 -5 54 -1 9 5 1 8 -21 9 -35 1 -110 16 -140 28 -14 5 -16
2 -10 -12 6 -16 5 -17 -9 -4 -9 8 -14 18 -12 22 6 9 -55 27 -85 25 -36 -3 -35
15 2 37 76 46 79 47 96 34 14 -12 14 -11 2 5 -11 14 -11 17 2 17 8 0 21 10 29
22 l15 22 5 -22 c4 -13 0 -28 -9 -37 -13 -13 -13 -17 1 -30 8 -8 22 -15 31
-15 9 0 14 -4 11 -8 -2 -4 20 -7 50 -6 41 1 54 -2 50 -11 -6 -15 21 -10 48 10
23 17 16 54 -15 73 -11 8 -18 9 -14 3 3 -6 2 -11 -4 -11 -5 0 -12 6 -14 13 -3
6 -6 2 -6 -11 -1 -13 -5 -20 -11 -17 -5 3 -10 -3 -10 -14 0 -12 -6 -21 -14
-21 -8 0 -12 7 -10 18 6 26 -9 43 -42 45 -27 2 -50 37 -24 37 6 0 9 4 6 9 -3
5 1 12 10 15 10 4 13 2 8 -6 -4 -7 -3 -8 4 -4 6 4 21 2 33 -5 23 -12 125 -16
136 -5 4 3 -23 6 -58 6 -41 0 -73 5 -85 14 -18 14 -18 15 7 24 14 6 39 22 56
36 16 14 33 23 37 19 3 -3 6 -1 6 5 0 7 19 24 42 39 24 16 52 38 64 51 22 23
40 30 28 10 -4 -6 -3 -8 4 -4 6 3 9 16 7 29 -4 21 -4 21 10 3 13 -18 14 -18
12 2 0 11 -4 20 -7 20 -33 -3 -36 34 -10 110 11 30 13 31 26 15 17 -22 18 -37
2 -27 -7 4 -8 3 -4 -5 4 -6 11 -9 16 -6 4 3 11 -2 14 -11 4 -10 2 -13 -7 -9
-6 4 0 -5 15 -18 21 -20 38 -25 80 -25 53 -1 98 21 98 47 0 21 20 11 35 -19 9
-17 21 -28 27 -24 6 4 9 1 7 -5 -3 -7 -9 -12 -14 -12 -6 0 -16 -11 -23 -25 -7
-13 -18 -22 -23 -18 -7 4 -7 -1 0 -15 8 -13 8 -20 2 -19 -6 2 -18 -13 -28 -32
-10 -19 -23 -35 -30 -35 -6 0 -15 -4 -20 -9 -5 -5 -2 -6 6 -1 9 5 12 4 10 -4
-3 -7 -9 -13 -14 -14 -5 -1 -25 -18 -44 -37 -18 -19 -31 -29 -27 -23 5 9 2 11
-8 7 -9 -3 -13 -10 -10 -15 3 -5 -2 -9 -10 -9 -9 0 -25 -9 -35 -19 -11 -11
-22 -17 -25 -14 -3 3 -12 1 -19 -5 -7 -7 -29 -13 -48 -14 -20 -2 -40 -11 -49
-23 -19 -26 -21 -45 -5 -45 7 0 15 -6 18 -12 3 -10 9 -10 25 -1 12 7 39 16 62
19 22 4 40 11 40 16 0 5 5 6 10 3 6 -4 17 -1 25 5 8 6 20 8 26 4 8 -4 9 -3 5
5 -4 6 0 14 11 18 10 4 24 14 31 22 11 13 12 13 6 1 -7 -13 -5 -13 9 -1 9 7
14 17 11 22 -3 5 2 6 11 3 10 -4 15 -2 13 7 -2 9 4 13 17 11 16 -2 17 -1 5 7
-14 10 -7 15 13 12 5 -1 6 3 3 7 -3 5 5 18 19 28 13 10 22 21 19 25 -2 4 3 14
11 22 8 9 15 20 15 26 0 6 4 11 8 11 5 0 14 10 21 23 11 22 11 22 5 -3 -4 -14
-3 -22 1 -18 16 15 14 83 -2 100 -15 17 -14 18 5 18 13 0 22 6 22 16 0 8 5 12
11 8 15 -9 -19 56 -45 85 -11 13 -15 21 -8 17 8 -5 12 1 12 18 0 16 6 26 15
26 8 0 14 3 13 8 0 4 2 15 6 24 4 9 2 26 -4 38 -10 18 -8 25 16 46 15 14 24
19 21 11 -4 -10 0 -14 11 -12 9 1 24 -3 32 -9 13 -9 13 -8 3 4 -15 20 -10 69
8 81 19 12 20 12 10 -14z m-1248 -12 c-3 -9 -8 -14 -10 -11 -3 3 -2 9 2 15 9
16 15 13 8 -4z m131 9 c18 -7 12 -24 -10 -24 -8 0 -14 7 -14 15 0 17 2 18 24
9z m-4 -44 c12 -8 11 -10 -7 -10 -13 0 -23 5 -23 10 0 13 11 13 30 0z m1263
-52 c9 -7 32 -51 51 -98 20 -47 40 -86 46 -88 6 -2 10 30 10 92 0 89 1 96 20
96 19 0 20 -7 20 -100 0 -94 -1 -100 -24 -115 -38 -25 -59 -6 -102 95 -52 122
-68 121 -62 -5 4 -86 2 -95 -14 -95 -16 0 -18 10 -18 99 0 92 2 101 22 115 27
19 30 19 51 4z m-1770 -30 c20 -27 20 -29 4 -62 -13 -27 -24 -36 -52 -42 -19
-3 -44 -4 -55 -1 -18 5 -20 0 -20 -39 0 -37 -3 -44 -20 -44 -17 0 -20 7 -20
48 0 26 5 53 12 60 7 7 33 12 59 12 49 0 74 16 63 43 -8 21 -24 26 -83 23 -44
-2 -51 1 -51 16 0 17 8 19 71 16 65 -3 74 -6 92 -30z m1302 -15 c-2 -21 -1
-32 2 -25 3 6 9 10 13 7 5 -3 6 -13 3 -22 -5 -13 -2 -15 11 -10 11 4 15 3 10
-4 -4 -6 -2 -14 3 -18 6 -3 -2 -19 -19 -36 l-29 -30 5 28 c3 15 1 25 -4 22
-10 -6 -22 23 -14 36 3 5 -2 16 -10 25 -9 9 -14 20 -11 25 4 5 1 9 -4 9 -6 0
-11 5 -11 11 0 6 7 9 15 6 8 -4 17 -2 20 3 13 21 22 8 20 -27z m551 10 c-3 -8
-6 -22 -6 -31 -1 -11 -6 -8 -16 11 -8 15 -12 32 -9 37 9 14 37 -1 31 -17z
m-1655 -86 c36 -93 37 -98 17 -95 -16 2 -28 22 -51 86 -16 45 -32 82 -36 82
-4 0 -20 -37 -37 -82 -24 -65 -35 -84 -52 -86 -20 -3 -19 1 15 85 42 105 49
115 81 111 21 -3 30 -17 63 -101z m219 83 c25 -25 26 -62 0 -85 -19 -17 -19
-18 1 -56 19 -39 19 -39 -1 -39 -13 0 -26 13 -40 40 -16 31 -26 40 -46 40 -24
0 -26 -3 -22 -40 3 -33 1 -40 -15 -40 -16 0 -18 7 -15 53 l3 52 55 5 c47 4 55
8 58 27 3 20 -1 22 -60 25 -50 2 -63 6 -66 21 -3 15 5 17 62 17 53 0 70 -4 86
-20z m228 -80 l39 -100 -23 0 c-13 0 -24 5 -24 11 0 18 -52 159 -59 159 -3 0
-21 -38 -39 -85 -25 -64 -38 -85 -52 -85 -16 0 -14 11 22 100 37 93 42 100 68
100 26 0 31 -7 68 -100z m114 18 l3 -83 53 -3 c37 -2 52 -7 52 -18 0 -11 -14
-14 -59 -14 -79 0 -91 16 -91 122 0 71 2 78 20 78 17 0 19 -8 22 -82z m181 15
c-2 -91 6 -103 67 -103 38 0 50 -4 50 -15 0 -12 -13 -15 -55 -15 -81 0 -95 18
-95 120 0 70 2 80 18 80 15 0 17 -9 15 -67z m315 -34 c38 -95 39 -100 19 -97
-17 2 -28 21 -52 85 -16 46 -32 83 -35 83 -3 0 -19 -37 -36 -82 -24 -64 -36
-84 -52 -86 -20 -3 -19 1 14 84 39 101 48 114 79 114 19 0 29 -15 63 -101z
m132 61 c11 -22 25 -40 30 -40 5 0 20 18 32 40 16 28 30 40 45 40 22 0 22 -1
-7 -47 -17 -26 -30 -51 -30 -56 0 -4 14 -28 30 -53 l31 -44 -24 0 c-17 0 -29
11 -46 40 -12 22 -26 40 -31 40 -5 0 -19 -18 -31 -40 -17 -29 -29 -40 -46 -40
-26 0 -25 4 14 56 30 40 29 47 -7 100 l-29 44 24 0 c19 0 30 -10 45 -40z m630
-33 c0 -80 9 -97 50 -97 41 0 50 17 50 97 0 58 3 73 15 73 12 0 15 -16 15 -84
0 -76 -2 -86 -22 -100 -12 -9 -41 -16 -64 -16 -62 0 -78 24 -83 121 -3 75 -2
79 18 79 19 0 21 -5 21 -73z m-67 -48 c-5 -5 -7 7 -4 29 5 34 6 35 9 8 2 -16
0 -32 -5 -37z m-313 26 c0 -11 -12 -15 -45 -15 -33 0 -45 4 -45 15 0 11 12 15
45 15 33 0 45 -4 45 -15z m-1055 -25 c-3 -5 -1 -11 5 -15 5 -3 10 -15 10 -26
0 -10 4 -19 9 -19 10 0 22 -33 26 -72 3 -30 30 -72 71 -108 16 -14 23 -18 16
-9 -16 22 -2 33 15 11 8 -9 12 -12 9 -5 -4 6 0 14 6 16 8 3 6 6 -4 6 -16 1
-22 11 -20 31 0 3 -8 6 -19 6 -19 0 -19 -1 -4 -12 9 -7 14 -17 11 -23 -9 -15
-44 21 -38 38 4 9 1 12 -6 7 -11 -6 -14 0 -11 20 0 4 -4 10 -10 14 -7 3 -9 14
-5 23 3 9 10 14 15 11 6 -3 20 1 32 9 18 11 27 12 52 1 41 -18 110 -17 129 1
17 17 46 20 46 5 0 -5 15 -10 33 -10 25 0 29 -3 17 -11 -11 -8 -7 -9 18 -4 20
4 32 3 32 -4 0 -6 -7 -7 -17 -4 -12 5 -14 3 -8 -8 4 -8 5 -11 1 -7 -4 3 -17
-3 -28 -14 -11 -11 -26 -17 -33 -14 -8 3 -17 0 -21 -6 -5 -7 -2 -8 6 -3 9 5
11 4 6 -4 -4 -6 -15 -10 -24 -9 -9 2 -17 -2 -17 -9 0 -11 -31 -38 -71 -59 -15
-9 -26 -9 -40 -1 -17 9 -18 9 -5 -6 9 -12 10 -17 2 -17 -7 0 -9 -5 -5 -12 5
-7 3 -8 -6 -3 -7 4 -15 3 -19 -3 -3 -6 -30 -22 -59 -35 -33 -15 -48 -27 -40
-31 7 -3 1 -4 -14 -1 -20 4 -28 1 -28 -9 0 -26 -29 -27 -36 -1 -3 14 -10 25
-16 25 -5 0 -6 5 -3 10 4 6 3 10 -2 9 -20 -3 -25 2 -13 16 11 13 10 14 -5 9
-14 -6 -16 -3 -10 17 5 19 4 21 -4 9 -10 -13 -12 -13 -20 0 -5 8 -8 17 -6 21
3 3 -5 16 -15 27 -26 27 -44 72 -29 72 6 0 7 5 4 10 -11 18 -24 10 -20 -12 8
-38 27 -78 38 -78 6 0 8 -3 4 -6 -3 -4 7 -26 23 -50 34 -48 39 -65 12 -41 -15
13 -21 14 -32 4 -12 -10 -12 -9 -2 5 11 13 9 22 -6 47 -10 17 -22 28 -27 23
-5 -4 -5 -1 -1 5 4 7 2 21 -4 30 -11 17 -11 17 -6 1 3 -10 1 -18 -5 -18 -7 0
-9 10 -6 23 3 12 -1 33 -9 47 l-15 25 6 -25 5 -25 -12 25 c-20 40 -41 56 -71
53 -15 -1 -27 3 -27 8 0 6 4 8 9 5 14 -9 52 39 46 60 -3 10 2 4 11 -13 10 -18
22 -33 26 -33 5 0 6 -4 3 -10 -3 -6 4 -10 16 -10 22 0 22 0 3 -16 -19 -15 -18
-15 2 -5 11 5 26 16 33 24 6 8 21 13 31 10 21 -6 27 -37 10 -48 -5 -3 -10 -12
-10 -18 0 -8 3 -8 9 1 6 10 10 8 14 -9 3 -13 2 -28 -3 -34 -5 -6 -5 -17 0 -25
8 -12 10 -12 10 -1 0 11 3 11 15 1 8 -6 14 -15 13 -18 -2 -20 4 -30 22 -35 14
-4 18 -11 14 -24 -5 -15 -4 -15 5 -3 6 8 11 12 11 8 1 -33 50 -69 50 -37 0 5
5 7 12 3 7 -5 8 -3 3 6 -6 10 -4 12 10 6 15 -5 16 -4 5 9 -13 16 -35 21 -25 6
7 -13 -12 -24 -26 -16 -6 5 -2 13 11 22 15 11 18 18 11 27 -6 7 -9 16 -6 19 3
4 2 5 -2 2 -9 -7 -34 16 -27 26 3 5 1 9 -4 9 -5 0 -17 20 -26 45 -12 31 -25
47 -41 51 -23 6 -23 6 -4 25 10 10 19 24 19 30 0 5 5 7 12 3 7 -4 8 -3 4 5 -9
14 15 82 26 75 5 -3 6 -9 3 -14z m111 5 c-1 -8 -5 -17 -8 -21 -5 -4 -4 16 1
34 3 9 9 -1 7 -13z m448 -108 c-6 -16 -84 -22 -84 -7 0 6 10 8 24 4 14 -3 33
-1 43 5 23 13 23 13 17 -2z m-619 -37 c3 -5 -3 -10 -15 -10 -12 0 -18 5 -15
10 3 6 10 10 15 10 5 0 12 -4 15 -10z m-175 -13 c0 -24 78 -174 109 -209 17
-20 31 -38 31 -41 0 -3 -14 -10 -30 -16 -29 -10 -32 -8 -61 32 -37 50 -71 115
-99 188 -11 30 -20 55 -20 57 0 1 16 2 35 2 22 0 35 -5 35 -13z m775 -13 c-59
-49 -268 -191 -393 -266 -224 -136 -463 -229 -548 -214 -36 7 -64 38 -64 72 0
35 66 154 132 239 55 70 63 77 66 56 2 -13 -11 -52 -28 -87 -50 -98 -41 -144
29 -144 108 0 423 158 646 324 57 43 64 45 125 45 l65 0 -30 -25z m368 9 c-26
-68 -107 -174 -169 -222 -91 -69 -244 -125 -244 -89 0 10 14 18 38 22 64 10
180 74 235 130 29 28 67 80 85 114 18 34 40 62 47 62 10 0 12 -6 8 -17z m213
-10 c-4 -16 -20 -56 -36 -90 -97 -210 -279 -362 -501 -417 -94 -23 -255 -21
-353 4 -69 19 -216 83 -216 95 0 2 13 11 30 20 28 15 33 14 81 -11 86 -43 138
-55 264 -61 139 -6 207 7 319 63 160 80 267 198 335 367 21 52 26 57 53 57 28
0 30 -2 24 -27z m-1161 -3 c3 -6 -1 -13 -10 -16 -19 -8 -30 0 -20 15 8 14 22
14 30 1z m15 -39 c0 -12 -20 -25 -27 -18 -7 7 6 27 18 27 5 0 9 -4 9 -9z m21
-44 c-10 -10 -41 -19 -41 -12 0 11 33 34 42 29 6 -4 6 -10 -1 -17z m987 -17
c-7 -10 -14 -18 -15 -16 -6 6 9 36 18 36 5 0 4 -9 -3 -20z m-958 -9 c0 -14
-18 -23 -31 -15 -8 4 -7 9 2 15 18 11 29 11 29 0z m-202 -157 c18 -22 18 -22
-22 -34 -55 -17 -95 -18 -101 -2 -7 20 6 63 17 56 5 -3 8 0 7 7 -1 8 3 26 11
41 l13 27 29 -37 c15 -20 36 -47 46 -58z m116 69 c-9 23 13 22 26 -2 14 -26
13 -29 -9 -41 -14 -7 -22 -7 -27 2 -4 6 -3 8 3 5 6 -4 16 0 23 8 11 13 10 14
-4 9 -11 -4 -24 2 -36 16 -28 33 -25 38 6 9 18 -17 23 -19 18 -6z m-24 -57 c0
-2 -8 -10 -17 -17 -16 -13 -17 -12 -4 4 13 16 21 21 21 13z m370 -23 c-1 -18
-18 -35 -24 -24 -4 6 -4 16 -1 21 7 12 25 13 25 3z m40 -18 c0 -8 -7 -15 -15
-15 -16 0 -20 12 -8 23 11 12 23 8 23 -8z m105 -11 c0 -10 -8 -20 -17 -22 -18
-3 -26 27 -11 42 12 11 28 0 28 -20z m349 -25 c-3 -5 -10 -7 -15 -4 -5 4 -9 2
-9 -3 0 -9 -54 -38 -110 -59 -45 -16 -48 -16 -24 2 10 8 29 15 42 15 12 0 22
5 22 10 0 6 6 10 14 10 8 0 16 3 18 8 2 4 14 14 28 23 25 17 45 16 34 -2z
m-620 -38 c11 -4 15 -10 9 -14 -5 -3 -19 0 -29 8 -20 15 -11 18 20 6z m97 -48
c13 -15 12 -15 -8 -4 -24 12 -29 21 -14 21 5 0 15 -7 22 -17z"/>
<path d="M3786 2258 c3 -5 10 -6 15 -3 13 9 11 12 -6 12 -8 0 -12 -4 -9 -9z"/>
<path d="M3058 2253 c7 -3 16 -2 19 1 4 3 -2 6 -13 5 -11 0 -14 -3 -6 -6z"/>
<path d="M3129 2133 c-13 -16 -12 -17 4 -4 16 13 21 21 13 21 -2 0 -10 -8 -17
-17z"/>
<path d="M3240 2080 c-8 -5 -10 -10 -5 -10 6 0 17 5 25 10 8 5 11 10 5 10 -5
0 -17 -5 -25 -10z"/>
<path d="M2927 2068 c2 -5 0 -8 -6 -8 -6 0 -8 -6 -5 -14 3 -8 -4 -15 -18 -18
-13 -3 -31 -9 -40 -13 -11 -4 -18 -3 -18 5 0 6 4 9 8 6 10 -6 38 11 31 19 -11
10 -59 -14 -55 -27 1 -7 1 -10 -1 -5 -6 9 -37 9 -46 0 -4 -3 -2 -12 4 -19 12
-14 4 -34 -13 -34 -7 0 -6 5 1 14 9 10 9 16 1 21 -17 10 16 43 52 50 21 5 27
10 19 18 -14 14 -105 -42 -108 -68 -2 -11 0 -14 3 -7 3 6 10 10 15 7 5 -4 -3
-17 -18 -31 -19 -17 -22 -24 -10 -24 8 0 17 -5 19 -11 2 -6 15 0 28 13 25 25
58 43 73 39 5 -1 6 2 3 7 -5 8 92 49 106 44 4 -1 5 5 2 13 -4 8 -1 15 5 15 6
0 11 -6 11 -14 0 -8 10 -13 25 -13 19 0 24 4 23 21 -2 19 -8 21 -49 21 -26 0
-45 -3 -42 -7z m83 -21 c0 -7 -4 -6 -10 3 -8 12 -10 12 -10 1 0 -8 -3 -12 -6
-8 -9 9 6 28 17 22 5 -4 9 -12 9 -18z m-200 -52 c7 -9 8 -15 2 -15 -5 0 -12 7
-16 15 -3 8 -4 15 -2 15 2 0 9 -7 16 -15z m-55 -45 c3 -5 1 -10 -4 -10 -6 0
-11 5 -11 10 0 6 2 10 4 10 3 0 8 -4 11 -10z"/>
<path d="M2710 2030 c0 -6 -5 -8 -12 -4 -6 4 -8 3 -5 -3 4 -6 0 -16 -8 -23 -8
-7 -15 -18 -15 -24 1 -6 9 -1 19 11 10 12 21 20 24 17 2 -3 7 2 10 10 4 9 2
18 -3 21 -6 4 -10 1 -10 -5z"/>
<path d="M2642 1957 c-6 -18 -20 -42 -30 -53 -10 -11 -17 -25 -14 -32 2 -6 -1
-12 -6 -12 -5 0 -12 -6 -15 -13 -3 -8 1 -14 8 -14 8 0 19 14 26 31 7 17 23 46
36 63 16 22 21 38 16 48 -7 12 -12 8 -21 -18z"/>
<path d="M2682 1958 c-11 -13 -22 -30 -24 -38 -2 -8 -11 -23 -20 -34 -27 -30
-21 -44 31 -69 26 -13 31 -14 21 -2 -10 12 -8 17 11 24 13 5 19 10 12 10 -7 1
-10 8 -6 17 3 8 12 13 19 10 7 -3 16 0 20 6 5 7 2 8 -6 3 -10 -6 -12 -4 -7 9
6 14 3 15 -14 5 -19 -10 -20 -9 -8 13 12 23 12 23 -10 4 -17 -16 -19 -22 -8
-34 8 -11 8 -14 0 -9 -6 4 -14 3 -18 -3 -3 -5 -2 -10 4 -10 6 0 8 -7 4 -15 -7
-20 -38 -15 -37 5 1 27 27 70 37 63 6 -4 8 0 4 11 -4 10 -3 15 3 11 6 -3 10
-1 10 6 0 6 8 18 18 25 15 11 15 13 1 14 -8 0 -25 -10 -37 -22z"/>
<path d="M3336 1902 c-3 -6 5 -23 19 -39 13 -15 25 -22 25 -15 0 6 -5 12 -11
12 -5 0 -8 4 -5 9 3 4 -1 16 -8 26 -8 12 -15 14 -20 7z"/>
<path d="M2662 1877 c-8 -9 -8 -17 0 -27 8 -13 9 -12 5 1 -3 9 0 22 6 28 6 6
8 11 5 11 -3 0 -10 -6 -16 -13z"/>
<path d="M2610 1835 c0 -5 5 -17 10 -25 5 -8 10 -10 10 -5 0 6 -5 17 -10 25
-5 8 -10 11 -10 5z"/>
<path d="M3306 1813 c-6 -14 -5 -15 5 -6 7 7 10 15 7 18 -3 3 -9 -2 -12 -12z"/>
<path d="M3367 1816 c-3 -8 -2 -18 3 -21 13 -8 20 9 11 24 -6 10 -10 9 -14 -3z"/>
<path d="M2650 1806 c0 -2 7 -7 16 -10 8 -3 12 -2 9 4 -6 10 -25 14 -25 6z"/>
<path d="M3236 1782 c-3 -5 1 -9 9 -9 8 0 12 4 9 9 -3 4 -7 8 -9 8 -2 0 -6 -4
-9 -8z"/>
<path d="M3420 1776 c0 -2 7 -7 16 -10 8 -3 12 -2 9 4 -6 10 -25 14 -25 6z"/>
<path d="M3616 1827 c3 -10 9 -15 12 -12 3 3 0 11 -7 18 -10 9 -11 8 -5 -6z"/>
<path d="M3170 1520 c-9 -6 -10 -10 -3 -10 6 0 15 5 18 10 8 12 4 12 -15 0z"/>
<path d="M3300 1490 c0 -5 5 -10 11 -10 5 0 7 5 4 10 -3 6 -8 10 -11 10 -2 0
-4 -4 -4 -10z"/>
<path d="M3350 1481 c0 -7 -5 -9 -12 -5 -8 5 -9 2 -5 -9 6 -16 -4 -22 -28 -17
-5 1 -7 -2 -3 -6 4 -4 3 -13 -3 -21 -9 -10 -15 -10 -25 -2 -8 6 -14 8 -14 4 0
-4 8 -14 18 -22 15 -13 15 -14 0 -9 -12 3 -15 1 -11 -10 4 -10 0 -12 -10 -8
-9 3 -14 13 -10 22 4 13 3 14 -5 3 -5 -7 -12 -9 -15 -5 -3 5 3 20 14 33 16 20
22 22 37 10 16 -12 16 -12 1 4 -15 17 -55 14 -44 -3 3 -4 -2 -13 -10 -20 -12
-10 -13 -16 -4 -26 6 -8 8 -14 4 -14 -4 0 -2 -7 5 -15 22 -27 -3 -16 -29 13
-14 15 -20 21 -13 12 19 -25 14 -35 -7 -16 -13 12 -21 14 -26 6 -9 -15 2 -40
17 -39 10 0 10 2 1 6 -7 2 -13 12 -13 20 0 14 2 14 18 0 10 -10 21 -15 24 -12
3 3 8 -2 12 -11 5 -12 2 -15 -9 -10 -11 4 -14 2 -9 -6 5 -8 2 -9 -10 -5 -11 5
-15 3 -10 -5 5 -8 2 -9 -10 -5 -11 5 -15 3 -10 -4 4 -7 1 -10 -7 -7 -8 3 -13
14 -12 24 1 10 0 13 -3 6 -5 -10 -9 -9 -18 4 -13 18 -37 12 -35 -9 0 -9 2 -9
6 1 2 6 9 12 15 12 6 0 8 -7 4 -15 -3 -8 -2 -14 2 -14 19 3 23 -2 12 -16 -10
-12 -8 -14 7 -10 43 9 92 37 146 85 55 50 95 106 83 118 -3 3 -6 0 -6 -7z
m-20 -44 c0 -2 -10 -12 -22 -23 l-23 -19 19 23 c18 21 26 27 26 19z m-75 -75
c-3 -3 -11 0 -18 7 -9 10 -8 11 6 5 10 -3 15 -9 12 -12z"/>
<path d="M3363 1453 c-27 -43 -83 -115 -83 -108 0 5 -64 -39 -80 -55 -3 -3
-12 -6 -20 -7 -8 -1 -33 -9 -55 -17 -29 -11 -34 -15 -17 -16 12 0 34 7 47 16
13 9 28 13 33 10 5 -3 28 11 51 30 22 20 41 30 41 23 0 -6 11 3 23 22 13 19
29 33 35 32 6 -2 9 4 6 12 -4 8 -1 15 5 15 6 0 11 7 11 15 0 8 5 15 11 15 5 0
8 4 5 9 -4 5 0 11 6 14 7 2 10 8 6 11 -3 4 -15 -5 -25 -21z"/>
<path d="M3206 1447 c3 -10 9 -15 12 -12 3 3 0 11 -7 18 -10 9 -11 8 -5 -6z"/>
<path d="M3125 1360 c3 -5 8 -10 11 -10 2 0 4 5 4 10 0 6 -5 10 -11 10 -5 0
-7 -4 -4 -10z"/>
<path d="M2993 1328 c-4 -8 5 -12 21 -9 5 1 12 -3 16 -10 9 -14 30 -3 30 16 0
15 -58 17 -67 3z m57 -8 c0 -5 -2 -10 -4 -10 -3 0 -8 5 -11 10 -3 6 -1 10 4
10 6 0 11 -4 11 -10z"/>
<path d="M3050 1280 c8 -5 24 -10 34 -10 26 0 18 6 -19 14 -22 5 -26 4 -15 -4z"/>
<path d="M2930 1270 c14 -4 34 -8 45 -8 16 0 15 2 -5 8 -14 4 -34 8 -45 8 -16
0 -15 -2 5 -8z"/>
<path d="M3018 1263 c6 -2 18 -2 25 0 6 3 1 5 -13 5 -14 0 -19 -2 -12 -5z"/>
<path d="M2930 1190 c0 -5 4 -10 9 -10 6 0 13 5 16 10 3 6 -1 10 -9 10 -9 0
-16 -4 -16 -10z"/>
<path d="M2755 1160 c-3 -5 -2 -10 4 -10 5 0 13 5 16 10 3 6 2 10 -4 10 -5 0
-13 -4 -16 -10z"/>
<path d="M3025 1111 c-3 -5 -2 -12 3 -15 5 -3 9 1 9 9 0 17 -3 19 -12 6z"/>
<path d="M2607 1486 c-4 -9 -2 -16 2 -16 5 0 7 -10 4 -22 -3 -17 -2 -19 5 -9
8 11 11 9 17 -8 3 -11 11 -21 16 -21 5 0 9 -6 9 -14 0 -7 7 -19 15 -26 24 -20
18 3 -11 41 -14 19 -32 47 -39 63 -9 22 -13 25 -18 12z"/>
<path d="M2680 1485 c-11 -13 -10 -14 4 -9 9 3 16 10 16 15 0 13 -6 11 -20 -6z"/>
<path d="M3020 1431 c0 -7 -5 -9 -12 -5 -7 5 -8 3 -3 -5 5 -9 10 -10 18 -2 6
6 8 14 4 18 -4 3 -7 1 -7 -6z"/>
<path d="M2970 1410 c-9 -6 -10 -10 -3 -10 6 0 15 5 18 10 8 12 4 12 -15 0z"/>
<path d="M2935 1380 c-4 -6 -11 -7 -17 -4 -7 4 -8 2 -4 -5 6 -9 11 -9 22 0 14
11 18 19 10 19 -3 0 -8 -5 -11 -10z"/>
<path d="M2786 1295 c-11 -8 -15 -15 -9 -15 7 0 15 5 18 10 4 6 11 7 17 4 7
-4 8 -2 4 4 -9 14 -7 15 -30 -3z"/>
<path d="M2729 1268 c-8 -27 -6 -38 5 -29 7 6 16 8 20 4 4 -4 4 0 0 10 -5 14
-22 24 -25 15z"/>
<path d="M2766 1258 c3 -5 10 -6 15 -3 13 9 11 12 -6 12 -8 0 -12 -4 -9 -9z"/>
<path d="M2600 1186 c0 -2 9 -6 20 -9 11 -3 18 -1 14 4 -5 9 -34 13 -34 5z"/>
<path d="M2473 1133 c-7 -2 -13 -9 -13 -15 0 -6 6 -6 15 2 9 7 26 10 42 6 21
-5 24 -4 13 4 -16 10 -37 12 -57 3z"/>
<path d="M2486 1104 c-5 -14 -4 -15 9 -4 17 14 19 20 6 20 -5 0 -12 -7 -15
-16z"/>
<path d="M2393 1099 c9 -6 15 -14 12 -20 -3 -5 1 -6 10 -3 14 6 14 8 -2 20
-10 7 -22 13 -28 13 -5 0 -2 -4 8 -10z"/>
<path d="M2428 1103 c7 -3 16 -2 19 1 4 3 -2 6 -13 5 -11 0 -14 -3 -6 -6z"/>
<path d="M2296 1085 c-9 -26 -7 -32 5 -12 6 10 9 21 6 23 -2 3 -7 -2 -11 -11z"/>
<path d="M2316 1242 c-3 -5 1 -9 9 -9 8 0 12 4 9 9 -3 4 -7 8 -9 8 -2 0 -6 -4
-9 -8z"/>
</g>
</svg>
