<?xml version="1.0" standalone="no"?>
<!DOCTYPE svg PUBLIC "-//W3C//DTD SVG 20010904//EN"
 "http://www.w3.org/TR/2001/REC-SVG-20010904/DTD/svg10.dtd">
<svg version="1.0" xmlns="http://www.w3.org/2000/svg"
 width="539.000000pt" height="352.000000pt" viewBox="0 0 539.000000 352.000000"
 preserveAspectRatio="xMidYMid meet">
<metadata>
Created by potrace 1.16, written by Peter Selinger 2001-2019
</metadata>
<g transform="translate(0.000000,352.000000) scale(0.100000,-0.100000)"
fill="#000000" stroke="none">
<path d="M0 1760 l0 -1760 2695 0 2695 0 0 1760 0 1760 -2695 0 -2695 0 0
-1760z m2925 1679 c168 -21 335 -73 508 -160 126 -63 176 -94 274 -171 57 -45
64 -48 78 -34 21 21 242 128 351 170 135 52 237 76 326 76 87 0 123 -13 157
-56 26 -33 28 -116 5 -195 -56 -190 -318 -564 -609 -866 l-127 -133 -125 0
-125 0 140 143 c235 238 374 417 462 592 74 147 82 233 29 281 -18 16 -37 19
-128 18 -90 0 -118 -4 -186 -28 -44 -16 -93 -35 -109 -43 l-29 -15 70 -71 c84
-86 163 -183 163 -200 -1 -21 -91 -113 -97 -99 -15 36 -130 176 -200 242 -236
226 -496 357 -817 412 -154 26 -396 21 -548 -11 -190 -41 -389 -126 -558 -239
-128 -86 -310 -272 -403 -412 -108 -163 -193 -357 -228 -518 l-11 -52 -70 0
-70 0 7 33 c17 76 59 209 96 302 233 585 795 1001 1409 1044 118 9 246 5 365
-10z m698 -881 c19 -24 58 -76 86 -117 48 -70 50 -76 34 -93 -25 -28 -36 -22
-67 33 -15 28 -50 80 -77 115 -53 71 -55 74 -37 92 18 18 24 15 61 -30z m701
-375 c14 -56 26 -104 26 -107 0 -3 -31 -6 -68 -6 l-68 0 -13 61 -12 61 47 54
c26 31 50 52 55 47 4 -4 19 -54 33 -110z m150 -236 c10 -14 54 -110 98 -213
44 -104 85 -192 91 -196 32 -19 37 13 37 223 l0 209 40 0 40 0 0 -209 c0 -126
-4 -220 -11 -240 -19 -54 -90 -77 -148 -46 -31 15 -46 43 -136 255 -64 150
-85 181 -109 160 -14 -10 -16 -44 -16 -216 l0 -204 -41 0 -40 0 3 224 c3 207
4 226 23 246 29 32 54 40 105 36 34 -3 50 -10 64 -29z m-4090 9 c100 -42 113
-187 23 -260 -36 -29 -44 -31 -143 -34 l-104 -4 0 -94 0 -94 -45 0 -45 0 0
106 c0 103 1 106 29 135 29 28 32 29 131 29 94 0 103 2 125 25 14 13 25 34 25
45 0 24 -18 61 -34 72 -6 4 -71 8 -143 8 l-133 0 0 40 0 40 140 0 c97 0 151
-4 174 -14z m401 -48 c23 -21 65 -117 165 -385 l20 -53 -43 0 -42 0 -29 81
c-62 174 -113 294 -126 294 -18 0 -21 -7 -94 -200 l-64 -170 -42 -3 c-38 -3
-42 -1 -36 15 89 238 161 406 183 423 34 26 76 25 108 -2z m1019 0 c18 -16 47
-79 95 -208 94 -253 90 -230 44 -230 l-39 0 -69 185 c-38 102 -73 189 -78 192
-17 10 -33 -21 -103 -199 l-69 -178 -37 0 c-21 0 -38 4 -38 8 0 4 15 46 34 93
18 46 55 139 81 207 37 96 53 126 74 137 38 21 76 18 105 -7z m1384 5 c12 -11
53 -104 100 -228 l79 -210 -35 -3 c-19 -2 -39 1 -44 6 -6 6 -40 91 -77 189
-45 119 -71 178 -81 178 -10 0 -39 -62 -86 -185 l-72 -185 -42 -3 c-32 -3 -41
0 -37 10 3 7 39 101 81 208 52 136 83 202 101 218 32 27 84 29 113 5z m319 11
c24 -5 37 -20 78 -95 31 -54 56 -89 66 -89 9 0 42 40 77 95 l61 95 46 0 c50 0
54 -4 26 -34 -11 -12 -44 -61 -74 -109 l-56 -89 41 -66 c22 -37 54 -86 69
-109 16 -23 29 -44 29 -47 0 -3 -20 -6 -44 -6 l-43 0 -57 90 c-32 50 -64 90
-71 90 -8 0 -42 -40 -75 -90 l-61 -90 -50 0 -50 0 77 111 77 112 -28 51 c-16
28 -46 78 -67 110 -21 33 -38 63 -38 68 0 9 25 10 67 2z m1487 0 c14 -5 16
-29 16 -166 0 -88 4 -168 10 -178 20 -38 117 -52 169 -25 42 21 51 61 51 226
l0 149 35 0 35 0 0 -171 c0 -194 -8 -223 -69 -261 -49 -31 -189 -33 -239 -3
-60 36 -72 80 -72 261 0 89 3 164 7 167 8 9 36 9 57 1z m-3639 -18 c54 -23 86
-107 65 -171 -6 -19 -27 -48 -46 -64 l-35 -28 45 -83 c25 -45 46 -84 46 -86 0
-2 -19 -4 -43 -4 l-43 0 -42 79 c-23 43 -49 84 -56 90 -8 7 -34 11 -58 9 l-43
-3 -3 -88 -3 -88 -37 3 -37 3 0 103 c0 98 1 105 25 124 22 17 35 19 111 15 97
-6 129 4 143 45 7 20 5 33 -8 52 -16 25 -20 26 -124 26 -141 0 -152 4 -152 46
l0 34 130 0 c90 0 141 -4 165 -14z m795 -156 c0 -214 -3 -210 142 -210 l98 0
0 -35 0 -35 -107 0 c-127 0 -168 15 -195 70 -15 29 -18 63 -18 208 l0 172 40
0 40 0 0 -170z m422 0 c4 -213 -3 -204 148 -208 l110 -4 0 -34 0 -34 -113 0
c-130 0 -171 14 -199 71 -15 28 -18 62 -18 207 l0 172 34 0 35 0 3 -170z
m-1329 -499 c57 -161 158 -343 259 -464 22 -27 39 -50 37 -51 -6 -5 -119 -46
-127 -46 -21 0 -157 210 -224 344 -46 92 -111 265 -105 280 3 6 33 12 68 14
l64 2 28 -79z m1797 76 c0 -6 -163 -128 -325 -244 -566 -403 -1079 -689 -1474
-819 -274 -91 -422 -96 -492 -16 -30 33 -31 38 -27 106 3 39 14 96 26 126 53
134 213 373 350 520 l61 65 1 -54 c0 -48 -6 -66 -55 -151 -100 -176 -120 -276
-67 -330 17 -16 46 -32 67 -36 191 -36 754 219 1310 593 83 55 194 132 247
170 l98 70 140 2 c77 1 140 0 140 -2z m1270 -12 c0 -8 -15 -56 -34 -107 -86
-238 -236 -471 -416 -646 -65 -63 -201 -173 -167 -135 19 21 23 38 7 28 -5 -3
-10 -1 -10 4 0 6 -8 11 -17 11 -17 -1 -17 -1 0 -11 18 -10 18 -11 0 -31 -10
-11 -17 -23 -15 -27 2 -3 -7 -12 -20 -20 -19 -12 -21 -12 -10 -1 14 17 16 34
2 25 -5 -3 -10 -2 -10 3 0 6 11 13 25 16 14 4 25 11 25 17 0 6 -5 7 -10 4 -20
-12 -60 -15 -60 -5 0 6 3 9 8 7 4 -3 16 0 27 4 18 9 18 9 -2 5 -13 -2 -23 0
-23 5 0 5 -5 9 -11 9 -5 0 -7 -5 -3 -11 5 -8 -1 -10 -20 -7 -20 4 -26 1 -26
-13 0 -10 -5 -21 -12 -25 -8 -5 -9 -2 -5 9 3 10 2 17 -3 17 -6 0 -10 -5 -10
-12 0 -6 -3 -8 -7 -5 -3 4 -12 2 -20 -5 -7 -6 -15 -9 -18 -7 -2 2 35 31 83 64
251 174 475 464 582 754 17 46 32 86 34 90 2 3 34 7 70 8 52 2 66 0 66 -12z"/>
</g>
</svg>
